<svg id="Layer_5" enable-background="new 0 0 64 64" height="512" viewBox="0 0 64 64" width="512" xmlns="http://www.w3.org/2000/svg" xmlns:xlink="http://www.w3.org/1999/xlink"><linearGradient id="SVGID_1_" gradientUnits="userSpaceOnUse" x1="32" x2="32" y1="63" y2="1"><stop offset="0" stop-color="#1285A8"/><stop offset="1" stop-color="#00C1C7"/></linearGradient><path d="m5 59h50v-32h-50zm2-30h46v28h-46zm52 0h-2v-4h-4v-2h6zm-2 28h2v6h-6v-2h4zm-50 6h-6v-6h2v4h4zm-4-34h-2v-6h6v2h-4zm6 2h2v24h-2zm4 0h2v20h-2zm0 22h2v2h-2zm4-22h2v20h-2zm0 22h2v2h-2zm4-22h2v20h-2zm0 22h2v2h-2zm4-22h2v20h-2zm0 22h2v2h-2zm4-22h2v20h-2zm0 22h2v2h-2zm4-22h2v20h-2zm0 22h2v2h-2zm4-22h2v20h-2zm0 22h2v2h-2zm4-22h2v20h-2zm0 22h2v2h-2zm8-22h2v24h-2zm-4 0h2v20h-2zm0 22h2v2h-2zm15-52h-28c-1.654 0-3 1.346-3 3v12c0 1.654 1.346 3 3 3h5v3.586c0 1.331 1.083 2.414 2.414 2.414.645 0 1.251-.251 1.707-.707l5.293-5.293h13.586c1.654 0 3-1.346 3-3v-12c0-1.654-1.346-3-3-3zm1 15c0 .551-.449 1-1 1h-14.414l-5.879 5.879c-.238.238-.707.045-.707-.293v-5.586h-7c-.551 0-1-.449-1-1v-12c0-.551.449-1 1-1h28c.551 0 1 .449 1 1zm-26-8c0 .551.449 1 1 1 1.654 0 3 1.346 3 3s-1.346 3-3 3-3-1.346-3-3h2c0 .551.449 1 1 1s1-.449 1-1-.449-1-1-1c-1.654 0-3-1.346-3-3s1.346-3 3-3 3 1.346 3 3h-2c0-.551-.449-1-1-1s-1 .449-1 1zm9-3c-1.654 0-3 1.346-3 3v7h2v-2h2v2h2v-7c0-1.654-1.346-3-3-3zm-1 6v-3c0-.551.449-1 1-1s1 .449 1 1v3zm8 2h2v2h-4v-10h2zm4-8h4v2h-2v2h2v2h-2v2h2v2h-4z" fill="url(#SVGID_1_)"/></svg>