<svg id="Layer_5" enable-background="new 0 0 64 64" height="512" viewBox="0 0 64 64" width="512" xmlns="http://www.w3.org/2000/svg" xmlns:xlink="http://www.w3.org/1999/xlink"><linearGradient id="SVGID_1_" gradientUnits="userSpaceOnUse" x1="32" x2="32" y1="63" y2="1"><stop offset="0" stop-color="#FFFFFF"/><stop offset="1" stop-color="#FFFFFF"/></linearGradient><path d="m61 61h2v2h-2zm-2 2h-54v-2h2v-21.618l4-2v-28.566c-1.161-.414-2-1.514-2-2.816v-2c0-1.654 1.346-3 3-3h28.002c1.652 0 2.999 1.345 3 2.998l.001 2c.001.802-.311 1.556-.878 2.123-.322.322-.708.551-1.125.698v10.181h16v42h2zm-4-42h-22v21.107l2.112.893h17.888v8h-10v2h6v8h6zm-18 32h-4v8h4zm2-2v10h2v-13.337l-24-10.154v23.491h2v-10h8v10h4v-10zm-14 2h-4v8h4zm18-6.663v2.663h8v-4h-11.161zm0 14.663h4v-6h-4zm-32-55c0 .551.448 1 1 1h28.003c.268 0 .519-.104.707-.293.189-.189.293-.44.293-.708l-.001-2c-.001-.551-.449-.999-1-.999h-28.002c-.552 0-1 .449-1 1zm2 30.382 2.965-1.482 15.035 6.36v-22.26h8v-10h-26zm-4 24.618h6v-23.382l-6 3zm-6 0h-2v2h2zm15.61-18.81 2 .846.779-1.842-2-.846zm4.091 1.731 10.909 4.615.779-1.842-10.909-4.615zm-1.701-18.921h-6v-6h6zm-2-4h-2v2h2zm2-4h-6v-6h6zm-2-4h-2v2h2zm10 12h-6v-6h6zm-2-4h-2v2h2zm2-4h-6v-6h6zm-2-4h-2v2h2zm10 4h-6v-6h6zm-2-4h-2v2h2zm-14 20h-6v-6h6zm-2-4h-2v2h2zm10 4h-6v-6h6zm-2-4h-2v2h2zm26 2h-18v-8h18zm-2-6h-14v4h14zm2 16h-18v-8h18zm-2-6h-14v4h14z" fill="url(#SVGID_1_)"/></svg>