<svg id="Layer_5" enable-background="new 0 0 64 64" height="512" viewBox="0 0 64 64" width="512" xmlns="http://www.w3.org/2000/svg" xmlns:xlink="http://www.w3.org/1999/xlink"><linearGradient id="SVGID_1_" gradientUnits="userSpaceOnUse" x1="32" x2="32" y1="55" y2="9"><stop offset="0" stop-color="#1285A8"/><stop offset="1" stop-color="#00C1C7"/></linearGradient><path d="m32 51c7.168 0 13-5.832 13-13s-5.832-13-13-13-13 5.832-13 13 5.832 13 13 13zm0-24c6.065 0 11 4.935 11 11s-4.935 11-11 11-11-4.935-11-11 4.935-11 11-11zm0 18c3.86 0 7-3.14 7-7s-3.14-7-7-7-7 3.14-7 7 3.14 7 7 7zm0-12c2.757 0 5 2.243 5 5s-2.243 5-5 5-5-2.243-5-5 2.243-5 5-5zm0 8c1.654 0 3-1.346 3-3s-1.346-3-3-3-3 1.346-3 3 1.346 3 3 3zm0-4c.551 0 1 .449 1 1s-.449 1-1 1-1-.449-1-1 .449-1 1-1zm-6-18h12c1.103 0 2-.897 2-2v-2c0-1.103-.897-2-2-2h-12c-1.103 0-2 .897-2 2v2c0 1.103.897 2 2 2zm0-4h12l.001 2h-12.001zm-19 10h6c1.103 0 2-.897 2-2v-2c0-1.103-.897-2-2-2h-6c-1.103 0-2 .897-2 2v2c0 1.103.897 2 2 2zm0-4h6l.001 2h-6.001zm52-5.899v-1.101c0-1.654-1.346-3-3-3h-6c-1.654 0-3 1.346-3 3v1h-2.279l-.86-2.582c-.682-2.044-2.589-3.418-4.744-3.418h-14.234c-2.155 0-4.062 1.374-4.743 3.418l-.861 2.582h-2.279v-1c0-1.654-1.346-3-3-3h-6c-1.654 0-3 1.346-3 3v1.101c-2.279.465-4 2.485-4 4.899v30c0 2.757 2.243 5 5 5h52c2.757 0 5-2.243 5-5v-30c0-2.414-1.721-4.434-4-4.899zm-10-1.101c0-.551.449-1 1-1h6c.551 0 1 .449 1 1v1h-8zm-41-1h6c.551 0 1 .449 1 1v1h-8v-1c0-.551.449-1 1-1zm-2 4h14.721l1.316-3.949c.409-1.227 1.553-2.051 2.846-2.051h14.234c1.293 0 2.437.824 2.846 2.051l1.316 3.949h14.721c1.654 0 3 1.346 3 3v7h-16.062c-3.12-3.665-7.758-6-12.938-6s-9.818 2.335-12.938 6h-16.062v-7c0-1.654 1.346-3 3-3zm38.938 32c.535-.628 1.017-1.298 1.458-2h14.604v2zm-26.43-.699c-.375.435-.923.699-1.508.699-1.103 0-2-.897-2-2 0-.956.675-1.755 1.549-1.952.532 1.161 1.191 2.249 1.959 3.253zm-1.508-10.301c0-8.271 6.729-15 15-15s15 6.729 15 15-6.729 15-15 15-15-6.729-15-15zm30.474 7c.971-2.138 1.526-4.503 1.526-7 0-3.307-.964-6.386-2.604-9h14.604v16zm-41.474 8c-1.654 0-3-1.346-3-3v-21h14.604c-1.64 2.614-2.604 5.693-2.604 9 0 1.813.292 3.558.82 5.198-1.627.507-2.82 2.01-2.82 3.802 0 2.206 1.794 4 4 4 1.07 0 2.072-.443 2.81-1.177 1.226 1.264 2.642 2.341 4.207 3.177zm52 0h-18.017c1.055-.564 2.041-1.235 2.949-2h17.884c-.414 1.161-1.514 2-2.816 2zm-2-28c1.654 0 3-1.346 3-3s-1.346-3-3-3-3 1.346-3 3 1.346 3 3 3zm0-4c.551 0 1 .449 1 1s-.449 1-1 1-1-.449-1-1 .449-1 1-1zm-51 28h2v2h-2zm0-4h2v2h-2zm0-4h2v2h-2zm54-10v2h-2v-2zm-2 4h2v2h-2zm0 4h2v2h-2z" fill="url(#SVGID_1_)"/></svg>