<?xml version="1.0" encoding="UTF-8" standalone="no"?>
<svg
   xmlns:dc="http://purl.org/dc/elements/1.1/"
   xmlns:cc="http://creativecommons.org/ns#"
   xmlns:rdf="http://www.w3.org/1999/02/22-rdf-syntax-ns#"
   xmlns:svg="http://www.w3.org/2000/svg"
   xmlns="http://www.w3.org/2000/svg"
   xmlns:sodipodi="http://sodipodi.sourceforge.net/DTD/sodipodi-0.dtd"
   xmlns:inkscape="http://www.inkscape.org/namespaces/inkscape"
   height="512pt"
   viewBox="0 0 512 512"
   width="512pt"
   version="1.1"
   id="svg3759"
   sodipodi:docname="logo_primary copia.svg"
   inkscape:version="0.92.2 5c3e80d, 2017-08-06">
  <metadata
     id="metadata3765">
    <rdf:RDF>
      <cc:Work
         rdf:about="">
        <dc:format>image/svg+xml</dc:format>
        <dc:type
           rdf:resource="http://purl.org/dc/dcmitype/StillImage" />
      </cc:Work>
    </rdf:RDF>
  </metadata>
  <defs
     id="defs3763" />
  <sodipodi:namedview
     pagecolor="#ffffff"
     bordercolor="#666666"
     borderopacity="1"
     objecttolerance="10"
     gridtolerance="10"
     guidetolerance="10"
     inkscape:pageopacity="0"
     inkscape:pageshadow="2"
     inkscape:window-width="2215"
     inkscape:window-height="1036"
     id="namedview3761"
     showgrid="false"
     inkscape:zoom="1.190918"
     inkscape:cx="341.33333"
     inkscape:cy="341.33333"
     inkscape:window-x="0"
     inkscape:window-y="0"
     inkscape:window-maximized="0"
     inkscape:current-layer="layer1"
     showguides="true"
     inkscape:guide-bbox="true"
     inkscape:measure-start="537.401,340.074"
     inkscape:measure-end="659.995,340.074">
    <sodipodi:guide
       position="255.05534,354.55841"
       orientation="1,0"
       id="guide10"
       inkscape:locked="false" />
    <sodipodi:guide
       position="287.17342,255.05534"
       orientation="0,1"
       id="guide12"
       inkscape:locked="false" />
  </sodipodi:namedview>
  <path
     d="M 437.01953,74.980469 C 388.66797,26.628906 324.37891,0 256,0 207.9375,0 161.08984,13.398438 120.52734,38.742188 c -3.51172,2.195312 -4.58203,6.824218 -2.38672,10.335937 2.19532,3.511719 6.82032,4.582031 10.33594,2.386719 C 166.65234,27.609375 210.75,15 256,15 320.375,15 380.89453,40.066406 426.41406,85.585938 471.93359,131.10547 497,191.625 497,256 497,320.375 471.93359,380.89453 426.41406,426.41406 380.89453,471.93359 320.375,497 256,497 191.625,497 131.10547,471.93359 85.585938,426.41406 40.066406,380.89453 15,320.375 15,256 15,202.44141 33.003906,150.10156 65.800781,107.98438 c 4.183594,2.05078 8.878907,3.21093 13.84375,3.21093 17.394531,0 31.546879,-14.152341 31.546879,-31.550779 0,-17.394531 -14.152348,-31.546875 -31.546879,-31.546875 -17.394531,0 -31.546875,14.152344 -31.546875,31.546875 0,7.007813 2.296875,13.484375 6.175782,18.726563 C 19.238281,143.17969 0,198.94141 0,256 0,324.37891 26.628906,388.66797 74.980469,437.01953 123.33203,485.37109 187.62109,512 256,512 324.37891,512 388.66797,485.37109 437.01953,437.01953 485.37109,388.66797 512,324.37891 512,256 512,187.62109 485.37109,123.33203 437.01953,74.980469 Z"
     id="path3757"
     inkscape:connector-curvature="0"
     style="fill:#364d6f"
     sodipodi:nodetypes="sscscssssssscsssscssssss" 
     />
  <g
     inkscape:label="Capa 1"
     inkscape:groupmode="layer"
     id="layer1">
    <g
       aria-label="M"
       style="font-style:normal;font-variant:normal;font-weight:300;font-stretch:normal;font-size:10.58333302px;line-height:1.25;font-family:Potra;-inkscape-font-specification:'Potra, Light';font-variant-ligatures:normal;font-variant-caps:normal;font-variant-numeric:normal;text-align:center;letter-spacing:0px;word-spacing:0px;writing-mode:lr-tb;text-anchor:middle;fill:#000000;fill-opacity:1;stroke:none;stroke-width:0.26458332"
       id="text3890"
       transform="matrix(5.1345245,0,0,4.4893137,11.4795,-22.735584)">
      <path
         d="m 67.326711,90.158825 q 0.617361,0.176389 0.881944,0.79375 0.264584,0.529167 0.0882,1.234722 -0.264584,1.058334 -1.499306,1.058334 -0.970139,-0.264584 -1.322916,-0.79375 -0.352778,-0.617362 -0.176389,-1.322917 0.440972,-1.058333 1.499305,-1.058333 0.352778,0 0.529167,0.08819 z m -39.246527,2.998611 q -0.617361,0 -1.058333,-0.440972 -0.352778,-0.440972 -0.352778,-1.058333 V 64.05327 q 0,-1.411111 1.411111,-1.411111 0.617361,0 1.058333,0.440972 0.440972,0.352778 0.440972,0.970139 v 27.604861 q 0,0.617361 -0.440972,1.058333 -0.440972,0.440972 -1.058333,0.440972 z M 43.249628,59.819937 q -0.881944,0 -1.322917,-0.705556 L 30.373239,38.300493 q -0.352777,-0.529167 -0.176389,-1.058334 0.176389,-0.617361 0.705556,-0.970138 0.529167,-0.176389 0.705556,-0.176389 0.881944,0 1.234722,0.79375 L 44.48435,57.615076 q 0.352778,0.529166 0.176389,1.146527 -0.176389,0.529167 -0.705555,0.881945 -0.529167,0.176389 -0.705556,0.176389 z M 20.319073,93.157436 q -0.617361,0 -1.058333,-0.440972 -0.440973,-0.440972 -0.440973,-1.058333 V 32.920632 q 0,-1.146528 1.146528,-1.411111 0.529167,0 0.881945,0.176389 0.440972,0.08819 0.705555,0.617361 L 42.367684,72.167159 62.123239,36.889382 q 0.440972,-0.705556 1.234722,-0.705556 0.529167,0 0.705555,0.176389 0.529167,0.264583 0.705556,0.881944 0.176389,0.529167 -0.08819,1.058334 L 43.602406,75.95952 q -0.529167,0.881944 -1.322917,0.705555 -0.970139,0 -1.234722,-0.705555 L 21.730184,38.917854 v 52.740277 q 0,0.617361 -0.440972,1.058333 -0.352778,0.440972 -0.970139,0.440972 z m 46.478471,-4.938889 q -1.411111,0 -1.411111,-1.411111 V 64.05327 q 0,-1.411111 1.411111,-1.411111 0.617361,0 1.058334,0.440972 0.440972,0.352778 0.440972,0.970139 v 22.754166 q 0,0.617361 -0.440972,1.058334 -0.440973,0.352777 -1.058334,0.352777 z m 7.9375,4.938889 q -0.617361,0 -1.058333,-0.440972 -0.440972,-0.440972 -0.440972,-1.058333 V 38.65327 L 47.65935,85.48452 q -0.440972,0.79375 -1.322916,0.79375 -0.264584,0 -0.705556,-0.264584 -0.529167,-0.264583 -0.705556,-0.79375 -0.176388,-0.617361 0.176389,-1.146527 L 73.412127,32.215076 q 0.264584,-0.440972 0.705556,-0.529166 0.440972,-0.176389 0.970139,-0.176389 1.058333,0.264583 1.058333,1.411111 v 58.737499 q 0,0.617361 -0.440972,1.058333 -0.352778,0.440972 -0.970139,0.440972 z"
         style="font-size:88.19444275px;stroke-width:0.26458332;fill:#364d6f"
         id="path3892"
         inkscape:connector-curvature="0" />
    </g>
  </g>
</svg>
