<?xml version="1.0" encoding="UTF-8" standalone="no"?>
<svg
   xmlns:dc="http://purl.org/dc/elements/1.1/"
   xmlns:cc="http://creativecommons.org/ns#"
   xmlns:rdf="http://www.w3.org/1999/02/22-rdf-syntax-ns#"
   xmlns:svg="http://www.w3.org/2000/svg"
   xmlns="http://www.w3.org/2000/svg"
   xmlns:sodipodi="http://sodipodi.sourceforge.net/DTD/sodipodi-0.dtd"
   xmlns:inkscape="http://www.inkscape.org/namespaces/inkscape"
   height="96.354271pt"
   viewBox="0 0 357.58643 96.354271"
   width="357.58643pt"
   version="1.1"
   id="svg3759"
   sodipodi:docname="logo_complete_primary.svg"
   inkscape:version="0.92.2 5c3e80d, 2017-08-06">
  <metadata
     id="metadata3765">
    <rdf:RDF>
      <cc:Work
         rdf:about="">
        <dc:format>image/svg+xml</dc:format>
        <dc:type
           rdf:resource="http://purl.org/dc/dcmitype/StillImage" />
      </cc:Work>
    </rdf:RDF>
  </metadata>
  <defs
     id="defs3763" />
  <sodipodi:namedview
     pagecolor="#ffffff"
     bordercolor="#666666"
     borderopacity="1"
     objecttolerance="10"
     gridtolerance="10"
     guidetolerance="10"
     inkscape:pageopacity="0"
     inkscape:pageshadow="2"
     inkscape:window-width="2215"
     inkscape:window-height="1036"
     id="namedview3761"
     showgrid="false"
     inkscape:zoom="1.190918"
     inkscape:cx="308.49952"
     inkscape:cy="-189.7934"
     inkscape:window-x="208"
     inkscape:window-y="0"
     inkscape:window-maximized="0"
     inkscape:current-layer="g13"
     showguides="true"
     inkscape:guide-bbox="true"
     inkscape:measure-start="537.401,340.074"
     inkscape:measure-end="659.995,340.074">
    <sodipodi:guide
       position="253.79582,-59.827774"
       orientation="1,0"
       id="guide10"
       inkscape:locked="false" />
  </sodipodi:namedview>
  <path
     d="M 82.24355,14.11072 C 73.14417,5.01135 61.04549,0 48.17713,0 39.13216,0 30.31581,2.52148 22.68227,7.29097 c -0.66087,0.41314 -0.8623,1.28426 -0.44916,1.9451398 0.41314,0.66088 1.28353,0.8623002 1.94514,0.44916 C 31.36263,5.19586 39.66145,2.82288 48.17713,2.82288 c 12.11486,0 23.50415,4.7173 32.07055,13.28371 8.56641,8.5664 13.28371,19.95569 13.28371,32.07055 0,12.11485 -4.7173,23.50414 -13.28371,32.07055 -8.5664,8.56641 -19.95569,13.2837 -32.07055,13.2837 -12.11485,0 -23.50414,-4.71729 -32.07055,-13.2837 -8.56641,-8.56641 -13.2837,-19.9557 -13.2837,-32.07055 0,-10.0793 3.38819,-19.92923 9.5603,-27.85535 0.78731,0.38594 1.67093,0.60427 2.60528,0.60427 3.27351,0 5.93687,-2.66335 5.93687,-5.9376 0,-3.27351 -2.66336,-5.9368702 -5.93687,-5.9368702 -3.27351,0 -5.9368702,2.6633602 -5.9368702,5.9368702 0,1.31881 0.43225,2.53765 1.1622302,3.52419 C 3.62049,26.94526 0,37.43917 0,48.17714 0,61.0455 5.01135,73.14418 14.11072,82.24355 c 9.09937,9.09937 21.19806,14.11072 34.06641,14.11072 12.86836,0 24.96704,-5.01135 34.06642,-14.11072 9.09937,-9.09937 14.11072,-21.19805 14.11072,-34.06641 0,-12.86836 -5.01135,-24.96704 -14.11072,-34.06642 z"
     id="path3757"
     inkscape:connector-curvature="0"
     style="fill:#FFFFFF;stroke-width:0.18819192"
     sodipodi:nodetypes="sscscssssssscsssscssssss" />
  <g
     inkscape:label="Capa 1"
     inkscape:groupmode="layer"
     id="layer1"
     transform="translate(-1.2595322,-1.2595322)">
    <g
       aria-label="M"
       style="font-style:normal;font-variant:normal;font-weight:300;font-stretch:normal;font-size:10.58333302px;line-height:1.25;font-family:Potra;-inkscape-font-specification:'Potra, Light';font-variant-ligatures:normal;font-variant-caps:normal;font-variant-numeric:normal;text-align:center;letter-spacing:0px;word-spacing:0px;writing-mode:lr-tb;text-anchor:middle;fill:#000000;fill-opacity:1;stroke:none;stroke-width:0.26458332"
       id="text3890"
       transform="matrix(0.90533385,0,0,0.79156846,6.3276522,0.79912221)">
      <path
         d="m 67.326711,90.158825 q 0.617361,0.176389 0.881944,0.79375 0.264584,0.529167 0.0882,1.234722 -0.264584,1.058334 -1.499306,1.058334 -0.970139,-0.264584 -1.322916,-0.79375 -0.352778,-0.617362 -0.176389,-1.322917 0.440972,-1.058333 1.499305,-1.058333 0.352778,0 0.529167,0.08819 z m -39.246527,2.998611 q -0.617361,0 -1.058333,-0.440972 -0.352778,-0.440972 -0.352778,-1.058333 V 64.05327 q 0,-1.411111 1.411111,-1.411111 0.617361,0 1.058333,0.440972 0.440972,0.352778 0.440972,0.970139 v 27.604861 q 0,0.617361 -0.440972,1.058333 -0.440972,0.440972 -1.058333,0.440972 z M 43.249628,59.819937 q -0.881944,0 -1.322917,-0.705556 L 30.373239,38.300493 q -0.352777,-0.529167 -0.176389,-1.058334 0.176389,-0.617361 0.705556,-0.970138 0.529167,-0.176389 0.705556,-0.176389 0.881944,0 1.234722,0.79375 L 44.48435,57.615076 q 0.352778,0.529166 0.176389,1.146527 -0.176389,0.529167 -0.705555,0.881945 -0.529167,0.176389 -0.705556,0.176389 z M 20.319073,93.157436 q -0.617361,0 -1.058333,-0.440972 -0.440973,-0.440972 -0.440973,-1.058333 V 32.920632 q 0,-1.146528 1.146528,-1.411111 0.529167,0 0.881945,0.176389 0.440972,0.08819 0.705555,0.617361 L 42.367684,72.167159 62.123239,36.889382 q 0.440972,-0.705556 1.234722,-0.705556 0.529167,0 0.705555,0.176389 0.529167,0.264583 0.705556,0.881944 0.176389,0.529167 -0.08819,1.058334 L 43.602406,75.95952 q -0.529167,0.881944 -1.322917,0.705555 -0.970139,0 -1.234722,-0.705555 L 21.730184,38.917854 v 52.740277 q 0,0.617361 -0.440972,1.058333 -0.352778,0.440972 -0.970139,0.440972 z m 46.478471,-4.938889 q -1.411111,0 -1.411111,-1.411111 V 64.05327 q 0,-1.411111 1.411111,-1.411111 0.617361,0 1.058334,0.440972 0.440972,0.352778 0.440972,0.970139 v 22.754166 q 0,0.617361 -0.440972,1.058334 -0.440973,0.352777 -1.058334,0.352777 z m 7.9375,4.938889 q -0.617361,0 -1.058333,-0.440972 -0.440972,-0.440972 -0.440972,-1.058333 V 38.65327 L 47.65935,85.48452 q -0.440972,0.79375 -1.322916,0.79375 -0.264584,0 -0.705556,-0.264584 -0.529167,-0.264583 -0.705556,-0.79375 -0.176388,-0.617361 0.176389,-1.146527 L 73.412127,32.215076 q 0.264584,-0.440972 0.705556,-0.529166 0.440972,-0.176389 0.970139,-0.176389 1.058333,0.264583 1.058333,1.411111 v 58.737499 q 0,0.617361 -0.440972,1.058333 -0.352778,0.440972 -0.970139,0.440972 z"
         style="font-size:88.19444275px;fill:#FFFFFF;stroke-width:0.26458332"
         id="path3892"
         inkscape:connector-curvature="0" />
    </g>
  </g>
  <g
     inkscape:label="Capa 1"
     inkscape:groupmode="layer"
     id="g13"
     transform="translate(-1.2595322,-1.2595322)">
    <g
       aria-label="izo-ERP"
       style="font-style:normal;font-variant:normal;font-weight:normal;font-stretch:normal;font-size:14.21615791px;line-height:1.25;font-family:Potra;-inkscape-font-specification:Potra;letter-spacing:0px;word-spacing:0px;fill:#FFFFFF;fill-opacity:1;stroke:none;stroke-width:0.35540393"
       id="text12">
      <path
         d="M 113.68334,69.093564 V 51.420037 h -5.11782 q -1.0918,0 -1.0918,-1.091801 V 27.468654 q 0,-0.477663 0.27295,-0.81885 0.34119,-0.341188 0.81885,-0.341188 0.47766,0 0.81885,0.341188 0.34119,0.341187 0.34119,0.81885 v 21.699543 h 5.04958 q 0.47766,0 0.81885,0.341188 0.34119,0.341188 0.34119,0.818851 v 18.765328 q 0,0.477663 -0.34119,0.81885 -0.34119,0.272951 -0.81885,0.272951 -1.0918,0 -1.0918,-1.091801 z m -6.14138,-12.623948 q 0,-1.091801 1.0918,-1.091801 1.16004,0 1.16004,1.091801 v 16.513488 q 0,1.091801 -1.16004,1.091801 -1.0918,0 -1.0918,-1.091801 z m 8.39322,-12.214523 q 0,0.477663 -0.34119,0.818851 -0.34119,0.27295 -0.81885,0.27295 -1.0918,0 -1.0918,-1.091801 V 32.518234 q 0,-0.477663 0.27295,-0.818851 0.34119,-0.341188 0.81885,-0.341188 0.47766,0 0.81885,0.341188 0.34119,0.341188 0.34119,0.818851 z m -1.56947,29.819812 q -0.47766,-0.136475 -0.68237,-0.614138 -0.20471,-0.477663 -0.0682,-0.955325 v -0.06824 q 0.34119,-0.818851 1.16004,-0.818851 0.13647,0 0.20471,0.06824 0.0682,0 0.20471,0 0.5459,0.136475 0.75062,0.614138 0.20471,0.477663 0,0.955326 v 0.06824 q -0.20472,0.818851 -1.16004,0.818851 z"
         style="font-size:68.23755646px;stroke-width:0.35540393"
         id="path14" />
      <path
         d="m 140.2544,65.818161 h 15.42169 q 0.47766,0 0.81885,0.341188 0.34119,0.27295 0.34119,0.750613 0,0.5459 -0.34119,0.887088 Q 156.15375,68.07 155.67609,68.07 H 140.2544 q -0.47766,0 -0.81885,-0.27295 -0.34119,-0.341188 -0.34119,-0.887088 0,-0.477663 0.34119,-0.750613 0.34119,-0.341188 0.81885,-0.341188 z m 20.19832,-28.796249 q 0.88709,0.750613 0.13647,1.569464 l -29.95628,33.23169 h 28.93272 q 0.47766,0 0.81885,0.341188 0.34119,0.27295 0.34119,0.750613 0,0.477663 -0.34119,0.818851 -0.34119,0.341187 -0.81885,0.341187 h -31.45751 q -0.81885,0 -1.02357,-0.682375 -0.34118,-0.682376 0.13648,-1.228276 L 158.88325,37.09015 q 0.27296,-0.341188 0.81886,-0.341188 0.47766,0 0.75061,0.27295 z m -15.48993,-2.524789 h -11.39567 q -1.16004,0 -1.16004,-1.091801 0,-0.477663 0.27295,-0.818851 0.34119,-0.341188 0.88709,-0.341188 h 11.39567 q 0.47767,0 0.81885,0.341188 0.34119,0.341188 0.34119,0.818851 0,0.477663 -0.34119,0.81885 -0.34118,0.272951 -0.81885,0.272951 z m 16.30878,-7.506132 q 0.34119,0.682376 -0.13648,1.228276 l -31.11632,34.528204 q -0.40943,0.409425 -0.88709,0.409425 -0.27295,0 -0.75061,-0.341187 -0.34119,-0.341188 -0.40943,-0.750614 0,-0.477662 0.34119,-0.81885 l 29.41039,-32.68579 h -28.86449 q -1.0918,0 -1.0918,-1.091801 0,-0.477663 0.27295,-0.81885 0.34119,-0.341188 0.81885,-0.341188 h 31.38928 q 0.81885,0 1.02356,0.682375 z m -1.36475,38.758933 q 0.47766,0.136475 0.68237,0.614138 0.20472,0.409425 0.0682,0.955325 -0.20471,0.818851 -1.16004,0.818851 -0.75061,-0.204713 -1.02356,-0.614138 -0.27295,-0.477663 -0.13648,-0.955326 v -0.06824 q 0.34119,-0.818851 1.16004,-0.818851 0.27295,0 0.40943,0.06824 z"
         style="font-size:68.23755646px;stroke-width:0.35540393"
         id="path16" />
      <path
         d="m 167.71575,49.91881 q 0,-3.275402 0.81885,-6.482567 0.88709,-3.207166 2.45656,-6.004905 1.6377,-2.865978 3.95777,-5.186055 2.32008,-2.320077 5.2543,-3.821303 0.13647,-0.136475 0.5459,-0.136475 0.61413,0 0.95532,0.5459 0.27295,0.477663 0.0682,0.955326 -0.13648,0.409426 -0.5459,0.614138 -2.66127,1.432989 -4.77663,3.548353 -2.11536,2.047127 -3.54835,4.640154 -1.43299,2.52479 -2.1836,5.459005 -0.75062,2.865977 -0.75062,5.868429 0,4.162491 1.43299,8.12027 1.50123,3.88954 4.09425,6.891993 2.66127,3.002452 6.27786,4.844866 3.68483,1.774177 8.05203,1.774177 4.3672,0 7.98379,-1.774177 3.6166,-1.842414 6.20962,-4.844866 2.66127,-3.07069 4.09426,-6.960231 1.50122,-3.889541 1.50122,-8.052032 0,-4.026015 -1.36475,-7.779081 -1.36475,-3.821303 -3.8213,-6.755518 -2.45655,-3.002453 -5.93667,-4.913104 -3.41188,-1.910652 -7.57437,-2.183602 v 4.844867 q 0,1.0918 -1.0918,1.0918 -3.13893,0 -5.73195,1.296514 -2.59303,1.296514 -4.43545,3.480115 -1.77417,2.183602 -2.79773,4.981342 -0.95533,2.79774 -0.95533,5.800192 0,2.934215 0.95533,5.731955 1.02356,2.79774 2.86597,4.981342 1.84242,2.183601 4.36721,3.480115 2.59302,1.296514 5.73195,1.296514 3.13893,0 5.73196,-1.296514 2.59302,-1.296514 4.43544,-3.411878 1.84241,-2.183602 2.79774,-4.981341 1.02356,-2.79774 1.02356,-5.800193 0,-4.913104 -2.38831,-8.802644 -2.32008,-3.889541 -6.3461,-5.663718 -0.40942,-0.136475 -0.61414,-0.5459 -0.13647,-0.477663 0.0682,-0.887088 0.20471,-0.682376 1.02357,-0.682376 0.27295,0 0.40942,0.06824 2.32008,1.023563 4.16249,2.729502 1.84242,1.637701 3.13893,3.821303 1.36475,2.115364 2.04713,4.640154 0.75061,2.524789 0.75061,5.322529 0,3.480116 -1.22828,6.687281 -1.16004,3.207165 -3.2754,5.663717 -2.11536,2.456552 -5.11782,3.957778 -3.00245,1.432989 -6.61904,1.432989 -3.61659,0 -6.61904,-1.501226 -2.93422,-1.501227 -5.11782,-3.957779 -2.11536,-2.456552 -3.2754,-5.663717 -1.16004,-3.207165 -1.16004,-6.619043 0,-3.275402 1.02356,-6.346092 1.0918,-3.138928 3.07069,-5.527243 1.97889,-2.456552 4.70839,-4.026015 2.79774,-1.637702 6.20962,-1.842414 v -4.913104 q 0,-1.091801 1.16004,-1.091801 4.84487,0 8.87088,2.047126 4.02602,1.978889 6.96023,5.32253 2.93422,3.275402 4.57192,7.574369 1.6377,4.298966 1.6377,8.939119 0,4.640154 -1.6377,9.007358 -1.6377,4.298966 -4.57192,7.642606 -2.93421,3.275403 -7.02846,5.254292 -4.02602,1.978889 -8.80265,1.978889 -4.84487,0 -8.93912,-1.978889 -4.02601,-1.978889 -6.96023,-5.254292 -2.93421,-3.34364 -4.57192,-7.642606 -1.6377,-4.367204 -1.6377,-9.007358 z m 15.42169,-22.381918 q 0.20471,-0.818851 1.16004,-0.818851 0.27295,0 0.40942,0.06824 0.47767,0.136475 0.68238,0.614138 0.20471,0.477663 0.0682,0.955326 -0.34119,0.887088 -1.16004,0.887088 -0.81885,-0.27295 -1.0918,-0.682376 -0.27295,-0.477663 -0.0682,-0.955326 z"
         style="font-size:68.23755646px;stroke-width:0.35540393"
         id="path18" />
      <path
         d="m 220.17977,57.970842 q -0.47766,0 -0.81885,-0.27295 -0.34119,-0.341188 -0.34119,-0.818851 v -6.41433 q 0,-0.477663 0.34119,-0.750613 0.34119,-0.341188 0.81885,-0.341188 h 20.47127 q 0.47766,0 0.81885,0.341188 0.34119,0.27295 0.34119,0.750613 v 6.41433 q 0,0.477663 -0.34119,0.818851 -0.34119,0.27295 -0.81885,0.27295 z m 1.0918,-6.346093 v 4.094254 h 18.28767 v -4.094254 z"
         style="font-size:68.23755646px;stroke-width:0.35540393"
         id="path20" />
      <path
         d="m 252.91034,74.211381 q -0.47766,0 -0.81885,-0.341188 -0.34119,-0.341188 -0.34119,-0.818851 V 53.262451 q 0,-0.477663 0.34119,-0.818851 0.34119,-0.341188 0.81885,-0.341188 h 18.62885 q 0.47767,0 0.81885,0.341188 0.34119,0.341188 0.34119,0.818851 0,0.477663 -0.34119,0.81885 -0.34118,0.272951 -0.81885,0.272951 h -17.53705 v 17.605289 h 23.67843 q 1.0918,0 1.0918,1.091801 0,0.477663 -0.34118,0.818851 -0.27295,0.341188 -0.75062,0.341188 z m 0,-25.793797 q -0.47766,0 -0.81885,-0.341188 -0.34119,-0.341187 -0.34119,-0.81885 V 27.332179 q 0,-0.477663 0.34119,-0.81885 0.34119,-0.341188 0.81885,-0.341188 0.47766,0 0.75061,0.341188 0.34119,0.341187 0.34119,0.81885 v 18.833566 h 17.53705 q 0.47767,0 0.81885,0.341188 0.34119,0.27295 0.34119,0.750613 0,0.477663 -0.34119,0.81885 -0.34118,0.341188 -0.81885,0.341188 z M 277.5441,32.313521 q 0.47766,0 0.81885,0.341188 0.34119,0.341187 0.34119,0.81885 0,0.477663 -0.34119,0.818851 -0.34119,0.27295 -0.81885,0.27295 h -17.67353 v 7.642607 q 0,0.477662 -0.34119,0.81885 -0.34118,0.341188 -0.81885,0.341188 -0.47766,0 -0.81885,-0.341188 -0.27295,-0.341188 -0.27295,-0.81885 v -8.734408 q 0,-0.477663 0.27295,-0.81885 0.34119,-0.341188 0.81885,-0.341188 z m -19.03828,-3.684828 q -0.47766,0 -0.81885,-0.341188 -0.27295,-0.341188 -0.27295,-0.818851 0,-1.091801 1.0918,-1.091801 h 19.17475 q 0.47767,0 0.81885,0.341188 0.34119,0.27295 0.34119,0.750613 0,0.477663 -0.34119,0.818851 -0.34118,0.341188 -0.81885,0.341188 z m 0.20471,28.318586 q 0.47767,0 0.81885,0.341188 0.34119,0.27295 0.34119,0.81885 v 8.052032 h 13.64751 q 0.47767,0 0.81885,0.341188 0.34119,0.341187 0.34119,0.81885 0,0.477663 -0.34119,0.818851 -0.34118,0.27295 -0.81885,0.27295 h -14.80755 q -1.0918,0 -1.0918,-1.091801 v -9.21207 q 0,-1.160038 1.0918,-1.160038 z m 19.03828,9.143832 q 0.47766,0.136475 0.68238,0.614138 0.20471,0.409426 0.0682,0.887089 v 0.06824 q -0.34118,0.818851 -1.16003,0.818851 -0.75062,-0.204713 -1.02357,-0.614138 -0.27295,-0.477663 -0.13647,-1.023564 0.34118,-0.81885 1.16004,-0.81885 0.27295,0 0.40942,0.06824 z"
         style="font-size:68.23755646px;stroke-width:0.35540393"
         id="path22" />
      <path
         d="m 297.25943,59.813256 q 1.0918,0 1.0918,1.091801 v 11.873335 q 0,1.160038 -1.0918,1.160038 -0.47767,0 -0.81885,-0.27295 -0.34119,-0.341188 -0.34119,-0.887088 V 60.905057 q 0,-0.477663 0.34119,-0.750613 0.34118,-0.341188 0.81885,-0.341188 z m 13.85222,9.143833 q 0.27295,0.341187 0.13648,0.81885 -0.0682,0.477663 -0.40943,0.750613 -0.27295,0.204713 -0.68237,0.204713 -0.54591,0 -0.88709,-0.5459 L 296.03115,50.532948 q -0.61414,-0.955325 0.34119,-1.569463 0.20471,-0.204713 0.61414,-0.204713 0.47766,0 0.95532,0.477663 z M 292.34632,34.155935 v 38.622457 q 0,1.160038 -1.0918,1.160038 -1.16004,0 -1.16004,-1.160038 V 33.064134 q 0,-0.477663 0.27295,-0.818851 0.34119,-0.341187 0.88709,-0.341187 h 13.57928 q 2.45655,0 4.50367,0.477662 2.11537,0.409426 3.54836,1.501227 1.50122,1.091801 2.32007,2.934215 0.81885,1.774176 0.81885,4.503678 0,9.621496 -10.78153,9.621496 h -2.11536 q -0.47767,0 -0.81885,-0.341188 -0.34119,-0.341188 -0.34119,-0.818851 0,-0.477663 0.34119,-0.750613 0.34118,-0.341188 0.81885,-0.341188 h 2.11536 q 3.95778,0 6.20962,-1.569463 2.32008,-1.569464 2.32008,-5.800193 0,-2.183602 -0.68238,-3.548353 -0.61414,-1.432988 -1.77418,-2.183601 -1.16003,-0.818851 -2.86597,-1.091801 -1.63771,-0.341188 -3.61659,-0.341188 z m 16.64997,21.836018 11.05448,16.172301 q 0.61414,0.955326 -0.27295,1.569464 -0.27295,0.204712 -0.61414,0.204712 -0.61414,0 -0.95532,-0.477663 L 306.06207,55.582528 q -0.40942,-0.477663 -0.0682,-1.160039 0.34119,-0.614138 1.02357,-0.614138 2.86597,0 5.25429,-0.887088 2.38831,-0.887088 4.09425,-2.52479 1.70594,-1.637701 2.59303,-3.957778 0.95533,-2.320077 0.95533,-5.254292 0,-6.550805 -3.27541,-9.416783 -3.2754,-2.934215 -9.62149,-2.934215 h -9.68974 q -1.0918,0 -1.0918,-1.160038 0,-1.091801 1.0918,-1.091801 h 9.68974 q 7.23318,0 11.19096,3.548353 3.95777,3.480115 3.95777,11.054484 0,6.277855 -3.54835,10.167396 -3.48011,3.821303 -9.62149,4.640154 z m 3.68482,15.558163 q 0.54591,0.136475 0.75062,0.614138 0.20471,0.409425 0.0682,0.955326 h -0.0682 q -0.20471,0.81885 -1.16004,0.81885 -0.75061,-0.204712 -1.02356,-0.614138 -0.27295,-0.477663 -0.13648,-0.955326 v -0.06824 q 0.34119,-0.818851 1.16004,-0.818851 0.27295,0 0.40942,0.06824 z"
         style="font-size:68.23755646px;stroke-width:0.35540393"
         id="path24" />
      <path
         d="m 340.96771,69.025326 q -1.0918,0 -1.0918,-1.091801 V 53.262451 q 0,-1.091801 1.0918,-1.091801 h 5.32253 q 0.88709,0 2.59302,-0.477663 1.77418,-0.477663 3.54836,-1.842414 4.16249,-3.411878 4.16249,-10.099159 0,-2.388314 -0.68238,-4.435441 -0.68237,-2.047126 -1.97889,-3.480115 -1.29651,-1.501226 -3.2754,-2.320077 -1.91065,-0.887088 -4.3672,-0.887088 h -5.39077 q -0.47766,0 -0.81885,-0.341188 -0.34119,-0.341188 -0.34119,-0.818851 0,-0.477663 0.34119,-0.750613 0.34119,-0.341188 0.81885,-0.341188 h 5.39077 q 3.00245,0 5.32253,1.023564 2.38831,1.023563 3.95778,2.865977 1.6377,1.774177 2.45655,4.230729 0.81885,2.456552 0.81885,5.254291 0,3.343641 -1.16004,6.550806 -1.16004,3.138928 -3.88954,5.254292 -1.97889,1.569464 -4.09425,2.251839 -2.04713,0.614138 -3.41188,0.614138 h -4.16249 v 13.511036 q 0,0.477663 -0.34119,0.818851 -0.34119,0.27295 -0.81885,0.27295 z m -7.23318,-35.483529 q 0,-0.477663 0.27295,-0.818851 0.34119,-0.341188 0.88709,-0.341188 h 8.87088 q 1.84241,0 3.48011,0.477663 1.70594,0.409426 2.93422,1.364751 1.22827,0.955326 1.97889,2.456552 0.75061,1.501227 0.75061,3.548353 0,2.047127 -0.75061,3.548353 -0.68238,1.501227 -1.97889,2.593027 -1.22828,1.023564 -2.93422,1.569464 -1.6377,0.477663 -3.48011,0.477663 h -2.79774 q -1.0918,0 -1.0918,-1.091801 v -4.776629 q 0,-1.091801 1.0918,-1.091801 0.47766,0 0.81885,0.341188 0.34119,0.27295 0.34119,0.750613 v 3.616591 h 1.6377 q 2.79774,0 4.84486,-1.432989 2.04713,-1.432989 2.04713,-4.503679 0,-1.569463 -0.61414,-2.593027 -0.5459,-1.091801 -1.50122,-1.774176 -0.88709,-0.682376 -2.1836,-0.955326 -1.22828,-0.27295 -2.59303,-0.27295 h -7.77908 V 73.11958 q 0,0.477663 -0.34119,0.81885 -0.27295,0.341188 -0.75061,0.341188 -0.5459,0 -0.88709,-0.341188 -0.27295,-0.341187 -0.27295,-0.81885 z m 6.89199,6.346093 q -0.5459,-0.136476 -0.75061,-0.545901 -0.20472,-0.477663 -0.0682,-0.955326 v -0.06824 q 0.34119,-0.818851 1.22828,-0.818851 0.20471,0 0.34118,0.06824 0.5459,0.136475 0.75062,0.614138 0.20471,0.409425 0.0682,0.955325 h -0.0682 q -0.20472,0.818851 -1.16004,0.818851 z"
         style="font-size:68.23755646px;stroke-width:0.35540393"
         id="path26" />
    </g>
  </g>
</svg>
