<?xml version="1.0" encoding="UTF-8" standalone="no"?>
<svg
   xmlns:dc="http://purl.org/dc/elements/1.1/"
   xmlns:cc="http://creativecommons.org/ns#"
   xmlns:rdf="http://www.w3.org/1999/02/22-rdf-syntax-ns#"
   xmlns:svg="http://www.w3.org/2000/svg"
   xmlns="http://www.w3.org/2000/svg"
   xmlns:sodipodi="http://sodipodi.sourceforge.net/DTD/sodipodi-0.dtd"
   xmlns:inkscape="http://www.inkscape.org/namespaces/inkscape"
   height="96.354271pt"
   viewBox="0 0 357.58643 96.354271"
   width="357.58643pt"
   version="1.1"
   id="svg3759"
   sodipodi:docname="logo_complete.svg"
   inkscape:version="0.92.2 5c3e80d, 2017-08-06">
  <metadata
     id="metadata3765">
    <rdf:RDF>
      <cc:Work
         rdf:about="">
        <dc:format>image/svg+xml</dc:format>
        <dc:type
           rdf:resource="http://purl.org/dc/dcmitype/StillImage" />
      </cc:Work>
    </rdf:RDF>
  </metadata>
  <defs
     id="defs3763" />
  <sodipodi:namedview
     pagecolor="#ffffff"
     bordercolor="#666666"
     borderopacity="1"
     objecttolerance="10"
     gridtolerance="10"
     guidetolerance="10"
     inkscape:pageopacity="0"
     inkscape:pageshadow="2"
     inkscape:window-width="2215"
     inkscape:window-height="1036"
     id="namedview3761"
     showgrid="false"
     inkscape:zoom="1.190918"
     inkscape:cx="308.49952"
     inkscape:cy="-189.7934"
     inkscape:window-x="0"
     inkscape:window-y="0"
     inkscape:window-maximized="0"
     inkscape:current-layer="svg3759"
     showguides="true"
     inkscape:guide-bbox="true"
     inkscape:measure-start="537.401,340.074"
     inkscape:measure-end="659.995,340.074">
    <sodipodi:guide
       position="253.79582,-59.827774"
       orientation="1,0"
       id="guide10"
       inkscape:locked="false" />
  </sodipodi:namedview>
  <path
     d="M 82.24355,14.11072 C 73.14417,5.01135 61.04549,0 48.17713,0 39.13216,0 30.31581,2.52148 22.68227,7.29097 c -0.66087,0.41314 -0.8623,1.28426 -0.44916,1.9451398 0.41314,0.66088 1.28353,0.8623002 1.94514,0.44916 C 31.36263,5.19586 39.66145,2.82288 48.17713,2.82288 c 12.11486,0 23.50415,4.7173 32.07055,13.28371 8.56641,8.5664 13.28371,19.95569 13.28371,32.07055 0,12.11485 -4.7173,23.50414 -13.28371,32.07055 -8.5664,8.56641 -19.95569,13.2837 -32.07055,13.2837 -12.11485,0 -23.50414,-4.71729 -32.07055,-13.2837 -8.56641,-8.56641 -13.2837,-19.9557 -13.2837,-32.07055 0,-10.0793 3.38819,-19.92923 9.5603,-27.85535 0.78731,0.38594 1.67093,0.60427 2.60528,0.60427 3.27351,0 5.93687,-2.66335 5.93687,-5.9376 0,-3.27351 -2.66336,-5.9368702 -5.93687,-5.9368702 -3.27351,0 -5.9368702,2.6633602 -5.9368702,5.9368702 0,1.31881 0.43225,2.53765 1.1622302,3.52419 C 3.62049,26.94526 0,37.43917 0,48.17714 0,61.0455 5.01135,73.14418 14.11072,82.24355 c 9.09937,9.09937 21.19806,14.11072 34.06641,14.11072 12.86836,0 24.96704,-5.01135 34.06642,-14.11072 9.09937,-9.09937 14.11072,-21.19805 14.11072,-34.06641 0,-12.86836 -5.01135,-24.96704 -14.11072,-34.06642 z"
     id="path3757"
     inkscape:connector-curvature="0"
     style="fill:#FFFFFF;stroke-width:0.18819192"
     sodipodi:nodetypes="sscscssssssscsssscssssss" />
  <g
     inkscape:label="Capa 1"
     inkscape:groupmode="layer"
     id="layer1"
     transform="translate(-1.2595322,-1.2595322)">
    <g
       aria-label="M"
       style="font-style:normal;font-variant:normal;font-weight:300;font-stretch:normal;font-size:10.58333302px;line-height:1.25;font-family:Potra;-inkscape-font-specification:'Potra, Light';font-variant-ligatures:normal;font-variant-caps:normal;font-variant-numeric:normal;text-align:center;letter-spacing:0px;word-spacing:0px;writing-mode:lr-tb;text-anchor:middle;fill:#000000;fill-opacity:1;stroke:none;stroke-width:0.26458332"
       id="text3890"
       transform="matrix(0.90533385,0,0,0.79156846,6.3276522,0.79912221)">
      <path
         d="m 67.326711,90.158825 q 0.617361,0.176389 0.881944,0.79375 0.264584,0.529167 0.0882,1.234722 -0.264584,1.058334 -1.499306,1.058334 -0.970139,-0.264584 -1.322916,-0.79375 -0.352778,-0.617362 -0.176389,-1.322917 0.440972,-1.058333 1.499305,-1.058333 0.352778,0 0.529167,0.08819 z m -39.246527,2.998611 q -0.617361,0 -1.058333,-0.440972 -0.352778,-0.440972 -0.352778,-1.058333 V 64.05327 q 0,-1.411111 1.411111,-1.411111 0.617361,0 1.058333,0.440972 0.440972,0.352778 0.440972,0.970139 v 27.604861 q 0,0.617361 -0.440972,1.058333 -0.440972,0.440972 -1.058333,0.440972 z M 43.249628,59.819937 q -0.881944,0 -1.322917,-0.705556 L 30.373239,38.300493 q -0.352777,-0.529167 -0.176389,-1.058334 0.176389,-0.617361 0.705556,-0.970138 0.529167,-0.176389 0.705556,-0.176389 0.881944,0 1.234722,0.79375 L 44.48435,57.615076 q 0.352778,0.529166 0.176389,1.146527 -0.176389,0.529167 -0.705555,0.881945 -0.529167,0.176389 -0.705556,0.176389 z M 20.319073,93.157436 q -0.617361,0 -1.058333,-0.440972 -0.440973,-0.440972 -0.440973,-1.058333 V 32.920632 q 0,-1.146528 1.146528,-1.411111 0.529167,0 0.881945,0.176389 0.440972,0.08819 0.705555,0.617361 L 42.367684,72.167159 62.123239,36.889382 q 0.440972,-0.705556 1.234722,-0.705556 0.529167,0 0.705555,0.176389 0.529167,0.264583 0.705556,0.881944 0.176389,0.529167 -0.08819,1.058334 L 43.602406,75.95952 q -0.529167,0.881944 -1.322917,0.705555 -0.970139,0 -1.234722,-0.705555 L 21.730184,38.917854 v 52.740277 q 0,0.617361 -0.440972,1.058333 -0.352778,0.440972 -0.970139,0.440972 z m 46.478471,-4.938889 q -1.411111,0 -1.411111,-1.411111 V 64.05327 q 0,-1.411111 1.411111,-1.411111 0.617361,0 1.058334,0.440972 0.440972,0.352778 0.440972,0.970139 v 22.754166 q 0,0.617361 -0.440972,1.058334 -0.440973,0.352777 -1.058334,0.352777 z m 7.9375,4.938889 q -0.617361,0 -1.058333,-0.440972 -0.440972,-0.440972 -0.440972,-1.058333 V 38.65327 L 47.65935,85.48452 q -0.440972,0.79375 -1.322916,0.79375 -0.264584,0 -0.705556,-0.264584 -0.529167,-0.264583 -0.705556,-0.79375 -0.176388,-0.617361 0.176389,-1.146527 L 73.412127,32.215076 q 0.264584,-0.440972 0.705556,-0.529166 0.440972,-0.176389 0.970139,-0.176389 1.058333,0.264583 1.058333,1.411111 v 58.737499 q 0,0.617361 -0.440972,1.058333 -0.352778,0.440972 -0.970139,0.440972 z"
         style="font-size:88.19444275px;fill:#FFFFFF;stroke-width:0.26458332"
         id="path3892"
         inkscape:connector-curvature="0" />
    </g>
  </g>
  <g
     inkscape:label="Capa 1"
     inkscape:groupmode="layer"
     id="g13"
     transform="translate(-1.2595322,-1.2595322)">
    <text
       xml:space="preserve"
       style="font-style:normal;font-variant:normal;font-weight:normal;font-stretch:normal;font-size:14.21615791px;line-height:1.25;font-family:Potra;-inkscape-font-specification:Potra;letter-spacing:0px;word-spacing:0px;fill:#FFFFFF;fill-opacity:1;stroke:none;stroke-width:0.35540393"
       x="102.3559"
       y="74.074905"
       id="text12"><tspan
         sodipodi:role="line"
         id="tspan10"
         x="102.3559"
         y="74.074905"
         style="font-size:68.23755646px;stroke-width:0.35540393">izo-ERP</tspan></text>
  </g>
</svg>
