<svg height="496pt" viewBox="-40 0 496 496" width="496pt" xmlns="http://www.w3.org/2000/svg" xmlns:xlink="http://www.w3.org/1999/xlink"><linearGradient id="a" gradientUnits="userSpaceOnUse" x1="208" x2="208" y1="496" y2="0"><stop offset="0" stop-color="#1285A8"/><stop offset="1" stop-color="#00C1C7"/></linearGradient><path d="m320 128c22.054688 0 40-17.945312 40-40s-17.945312-40-40-40-40 17.945312-40 40 17.945312 40 40 40zm0-64c13.230469 0 24 10.769531 24 24s-10.769531 24-24 24-24-10.769531-24-24 10.769531-24 24-24zm-320 89.464844v77.078125l30.191406 6.128906c3.671875 13.328125 8.976563 26.113281 15.816406 38.144531l-17.023437 25.695313 54.503906 54.503906 25.695313-17.03125c12.039062 6.839844 24.832031 12.152344 38.152344 15.824219l6.128906 30.191406h77.078125l6.128906-30.191406c13.320313-3.671875 26.113281-8.976563 38.152344-15.824219l5.175781 3.441406v114.574219c0 22.054688 17.945312 40 40 40s40-17.945312 40-40v-146.113281c0-8.335938 4.390625-16.03125 11.742188-20.574219 27.714843-17.144531 44.257812-46.289062 44.257812-77.96875 0-25.375-10.632812-48.953125-28.808594-66.085938l10.425782-10.425781-9.265626-18.519531 19.648438-6.542969v-43.539062l-19.648438-6.542969 9.265626-18.519531-30.785157-30.785157-18.519531 9.265626-6.542969-19.648438h-43.53125l-6.542969 19.648438-18.519531-9.265626-23.894531 23.898438c-4.152344-1.511719-8.34375-2.914062-12.601562-4.089844l-6.144532-30.191406h-77.078125l-6.128906 30.191406c-13.320313 3.664063-26.113281 8.976563-38.152344 15.816406l-25.695312-17.023437-54.503907 54.503906 17.023438 25.695313c-6.839844 12.039062-12.152344 24.832031-15.816406 38.152344zm400 57.878906c0 26.105469-13.710938 50.160156-36.671875 64.359375-12.105469 7.480469-19.328125 20.265625-19.328125 34.183594v42.113281h-32v16h32v48h-32v16h32v24c0 13.230469-10.769531 24-24 24s-24-10.769531-24-24v-56h32v-16h-32v-48h32v-16h-32v-10.113281c0-13.917969-7.222656-26.703125-19.328125-34.183594-22.960937-14.199219-36.671875-38.253906-36.671875-64.359375 0-24.441406 11.992188-46.929688 32-61.265625v62.457031l48 28.800782 48-28.800782v-62.457031c20.007812 14.335937 32 36.824219 32 61.265625zm-148.351562-95.03125-9.265626 18.519531 10.425782 10.425781c-1.167969 1.101563-2.328125 2.214844-3.433594 3.367188-13.488281-17.847656-34.550781-28.625-57.375-28.625-39.695312 0-72 32.304688-72 72s32.304688 72 72 72c14.992188 0 29.296875-4.648438 41.34375-13.136719 4.695312 9.578125 11.054688 18.328125 18.9375 25.898438-17.519531 12.460937-38.601562 19.238281-60.28125 19.238281-57.34375 0-104-46.65625-104-104s46.65625-104 104-104c13.929688 0 27.328125 2.832031 40 8.136719v13.632812zm-24.3125 119.101562c-9.96875 8.128907-22.335938 12.585938-35.335938 12.585938-30.878906 0-56-25.121094-56-56s25.121094-56 56-56c19.152344 0 36.679688 9.785156 46.960938 25.695312-9.59375 14.542969-14.960938 31.640626-14.960938 49.648438 0 8.257812 1.175781 16.328125 3.335938 24.070312zm60.664062-77.214843 3.6875-1.839844 6.542969 19.640625h43.53125l6.542969-19.648438 3.695312 1.847657v45.273437l-32 19.199219-32-19.199219zm-11.671875-128.351563 17.296875 8.648438 3.464844-1.550782c.988281-.449218 2-.839843 3.007812-1.234374l3.550782-1.34375 6.121093-18.367188h20.46875l6.128907 18.367188 3.554687 1.34375c1.015625.386718 2.023437.785156 3.007813 1.234374l3.460937 1.550782 17.296875-8.648438 14.472656 14.472656-8.648437 17.296876 1.550781 3.460937c.449219.992187.839844 2 1.234375 3.011719l1.34375 3.550781 18.359375 6.128906v20.46875l-18.367188 6.128907-1.34375 3.554687c-.386718 1.015625-.785156 2.023437-1.234374 3.007813l-1.550782 3.460937 8.648438 17.296875-3.542969 3.542969c-3.511719-2.335938-7.203125-4.476563-11.074219-6.390625l-11.535156-5.695313v17.167969l-5.617188-2.808594-3.460937 1.550782c-.992187.449218-2 .839843-3.011719 1.234374l-3.550781 1.34375-6.128906 18.367188h-20.46875l-6.128907-18.367188-3.554687-1.34375c-1.015625-.386718-2.023437-.785156-3.007813-1.234374l-3.460937-1.550782-5.609375 2.808594v-17.167969l-11.535156 5.679688c-3.871094 1.910156-7.5625 4.054687-11.074219 6.390625l-3.542969-3.542969 8.648438-17.296875-1.550782-3.464844c-.449218-.988281-.839843-2-1.234374-3.007812l-1.34375-3.550782-18.367188-6.121093v-20.46875l18.367188-6.128907 1.34375-3.554687c.386718-1.015625.785156-2.023437 1.234374-3.007813l1.550782-3.460937-8.648438-17.296875zm-231.871094 126.214844c3.679688-15.152344 9.671875-29.605469 17.816407-42.964844l2.648437-4.34375-15.371094-23.203125 36-36 23.203125 15.371094 4.34375-2.648437c13.351563-8.144532 27.804688-14.136719 42.964844-17.816407l4.945312-1.199219 5.527344-27.257812h50.921875l5.527344 27.257812 4.945313 1.199219c6.496093 1.574219 12.902343 3.679688 19.148437 6.109375l4.5625 9.121094-19.640625 6.542969v12.640625c-12.785156-4.535156-26.183594-6.871094-40-6.871094-66.167969 0-120 53.832031-120 120s53.832031 120 120 120c26.503906 0 52.167969-8.878906 73.0625-24.945312 1.089844.738281 2.074219 1.570312 3.195312 2.265624 7.351563 4.535157 11.742188 12.230469 11.742188 20.566407v12.335937l-4.753906-3.152344-4.34375 2.648438c-13.359375 8.144531-27.8125 14.136719-42.964844 17.816406l-4.945312 1.191406-5.527344 27.273438h-50.921875l-5.527344-27.265625-4.945313-1.191406c-15.148437-3.679688-29.605468-9.671875-42.964843-17.816407l-4.34375-2.648437-23.203125 15.378906-36-36.007812 15.378906-23.203125-2.648438-4.34375c-8.144531-13.351563-14.136718-27.804688-17.816406-42.964844l-1.199218-4.945312-27.273438-5.527344v-50.921875l27.257812-5.527344zm267.542969 299.9375c0-4.414062 3.585938-8 8-8s8 3.585938 8 8-3.585938 8-8 8-8-3.585938-8-8zm-112-408h-16v-16h16zm-115.480469 47.832031-11.3125-11.3125 11.3125-11.3125 11.3125 11.3125zm-36.519531 104.167969h-16v-16h16zm36.511719 110.800781-11.3125-11.320312 11.320312-11.3125 11.3125 11.320312zm115.488281 41.199219h-16v-16h16zm0 0" fill="url(#a)"/></svg>