<svg id="Layer_5" enable-background="new 0 0 64 64" height="512" viewBox="0 0 64 64" width="512" xmlns="http://www.w3.org/2000/svg" xmlns:xlink="http://www.w3.org/1999/xlink"><linearGradient id="SVGID_1_" gradientUnits="userSpaceOnUse" x1="32" x2="32" y1="63" y2=".683"><stop offset="0" stop-color="#1285A8"/><stop offset="1" stop-color="#00C1C7"/></linearGradient><path d="m17 37h-2c-1.103 0-2 .897-2 2v2c0 1.103.897 2 2 2h2c1.103 0 2-.897 2-2v-2c0-1.103-.897-2-2-2zm-2 4v-2h2l.002 2zm2 4h-2c-1.103 0-2 .897-2 2v2c0 1.103.897 2 2 2h2c1.103 0 2-.897 2-2v-2c0-1.103-.897-2-2-2zm-2 4v-2h2l.002 2zm2 4h-2c-1.103 0-2 .897-2 2v2c0 1.103.897 2 2 2h2c1.103 0 2-.897 2-2v-2c0-1.103-.897-2-2-2zm-2 4v-2h2l.002 2zm-6-20h-2c-1.103 0-2 .897-2 2v2c0 1.103.897 2 2 2h2c1.103 0 2-.897 2-2v-2c0-1.103-.897-2-2-2zm-2 4v-2h2l.002 2zm2 4h-2c-1.103 0-2 .897-2 2v2c0 1.103.897 2 2 2h2c1.103 0 2-.897 2-2v-2c0-1.103-.897-2-2-2zm-2 4v-2h2l.002 2zm2 4h-2c-1.103 0-2 .897-2 2v2c0 1.103.897 2 2 2h2c1.103 0 2-.897 2-2v-2c0-1.103-.897-2-2-2zm-2 4v-2h2l.002 2zm18-20h-2c-1.103 0-2 .897-2 2v2c0 1.103.897 2 2 2h2c1.103 0 2-.897 2-2v-2c0-1.103-.897-2-2-2zm-2 4v-2h2l.002 2zm2 4h-2c-1.103 0-2 .897-2 2v2c0 1.103.897 2 2 2h2c1.103 0 2-.897 2-2v-2c0-1.103-.897-2-2-2zm-2 4v-2h2l.002 2zm2 4h-2c-1.103 0-2 .897-2 2v2c0 1.103.897 2 2 2h2c1.103 0 2-.897 2-2v-2c0-1.103-.897-2-2-2zm-2 4v-2h2l.002 2zm2-34h-18c-1.103 0-2 .897-2 2v8c0 1.103.897 2 2 2h18c1.103 0 2-.897 2-2v-8c0-1.103-.897-2-2-2zm-18 10v-8h18l.002 8zm14-24h-10v-2h10zm-4 2h4v2h-4zm-2 2h-4v-2h4zm6 4h-10v-2h10zm16 24c-2.206 0-4 1.794-4 4 0 .731.211 1.407.555 1.998-.357.607-.555 1.295-.555 2.002 0 2.206 1.794 4 4 4s4-1.794 4-4c0-.707-.198-1.395-.555-2.002.344-.591.555-1.267.555-1.998 0-2.206-1.794-4-4-4zm0 2c1.103 0 2 .897 2 2s-.897 2-2 2-2-.897-2-2 .897-2 2-2zm0 8c-1.103 0-2-.897-2-2 0-.175.032-.346.079-.513.572.317 1.221.513 1.921.513s1.349-.196 1.921-.513c.047.167.079.338.079.513 0 1.103-.897 2-2 2zm2-24h-4c-1.103 0-2 .897-2 2v6c0 1.103.897 2 2 2h4c1.103 0 2-.897 2-2v-6c0-1.103-.897-2-2-2zm0 8-4 .002v-6.002h4zm21-28h-20c-1.654 0-3 1.346-3 3v13h-6v-7c0-2.757-2.243-5-5-5h-1v-10h-2.369l-1.968 1.684-2.338-2-2.331 2-2.333-2-2.332 2-1.959-1.684h-2.37v10h-1c-2.757 0-5 2.243-5 5v42c0 2.757 2.243 5 5 5h20c2.757 0 5-2.243 5-5v-1h9c2.757 0 5-2.243 5-5v-23h15c1.654 0 3-1.346 3-3v-16c0-1.654-1.346-3-3-3zm-34 6c1.654 0 3 1.346 3 3v3h-4v-6zm-14.671-7.682 2.332-2 2.333 2 2.333-2 2.336 2 2.337-2v15.682h-14v-15.682zm-5.329 7.682h1v6h-4v-3c0-1.654 1.346-3 3-3zm20 48h-20c-1.654 0-3-1.346-3-3v-37h26v37c0 1.654-1.346 3-3 3zm17-9c0 1.654-1.346 3-3 3h-9v-30h9c1.654 0 3 1.346 3 3zm4-36c0-1.654 1.346-3 3-3s3 1.346 3 3-1.346 3-3 3-3-1.346-3-3zm-3.201 8.788c1.197-2.313 3.558-3.788 6.201-3.788 3.519 0 6.432 2.613 6.92 6h-12.021c-.171-.837-.567-1.583-1.1-2.212zm17.201 1.212c0 .551-.448 1-1 1h-1.059c-.37-3.332-2.567-6.118-5.564-7.337.991-.914 1.623-2.212 1.623-3.663 0-2.757-2.243-5-5-5s-5 2.243-5 5c0 1.457.637 2.758 1.634 3.673-1.853.746-3.422 2.084-4.436 3.859-.666-.33-1.406-.532-2.198-.532h-1v-13c0-.551.448-1 1-1h20c.552 0 1 .449 1 1zm-20-11h2v2h-2zm0-4h2v2h-2zm0 8h2v2h-2zm16 34h-2v-12h2.233l-4.233-7.057-4.233 7.057h2.233v22h-2v-20h-3.767l7.767-12.944 7.767 12.944h-3.767zm0 4h-2v-2h2zm-2 2h2v2h-2zm-38-32h2v2h-2zm-8 0h2v2h-2zm4 0h2v2h-2z" fill="url(#SVGID_1_)"/></svg>