<svg id="Layer_5" enable-background="new 0 0 64 64" height="512" viewBox="0 0 64 64" width="512" xmlns="http://www.w3.org/2000/svg" xmlns:xlink="http://www.w3.org/1999/xlink"><linearGradient id="SVGID_1_" gradientUnits="userSpaceOnUse" x1="32" x2="32" y1="63" y2="1"><stop offset="0" stop-color="#1285A8"/><stop offset="1" stop-color="#00C1C7"/></linearGradient><path d="m39 20v-1c0-.552-.449-1-1-1h-2c-1.654 0-3-1.346-3-3v-3h3v-2h2v2c1.654 0 3 1.346 3 3h-2c0-.552-.449-1-1-1h-3v1c0 .552.449 1 1 1h2c1.654 0 3 1.346 3 3v3h-3v2h-2v-2c-1.654 0-3-1.346-3-3h2c0 .552.449 1 1 1zm-24 1v38c0 2.206-1.794 4-4 4-1.2 0-2.266-.542-3-1.382-.734.84-1.8 1.382-3 1.382-2.206 0-4-1.794-4-4v-38c0-3.301 2.01-6.14 4.87-7.361-1.736-1.275-2.87-3.325-2.87-5.639 0-3.859 3.14-7 7-7s7 3.141 7 7c0 1.958-.81 3.728-2.111 5h11.865c1.638-4.217 5.658-7 10.246-7 6.065 0 11 4.935 11 11s-4.935 11-11 11c-4.588 0-8.608-2.783-10.246-7zm13.747-7.581c1.328.651 2.253 2.004 2.253 3.581s-.925 2.93-2.253 3.581c1.412 3.276 4.613 5.419 8.253 5.419 4.962 0 9-4.037 9-9s-4.038-9-9-9c-3.64 0-6.841 2.143-8.253 5.419zm-18.747-.419c2.757 0 5-2.243 5-5s-2.243-5-5-5-5 2.243-5 5 2.243 5 5 5zm3 8h-2v-2h16c1.103 0 2-.897 2-2s-.897-2-2-2h-18c-3.309 0-6 2.691-6 6v38c0 1.103.897 2 2 2s2-.897 2-2v-3-16.859c0-1.675.833-3.23 2.227-4.16l1.219-.812 1.109 1.664-1.219.812c-.836.557-1.336 1.491-1.336 2.496v16.859 3c0 1.103.897 2 2 2s2-.897 2-2zm42 14h8v28h-44v-12h8v10h4v-18h8v18h4v-14h8v14h4zm-30 18h-4v8h4zm20 8h4v-12h-4zm-12 0h4v-16h-4zm24 0h4v-24h-4zm6-32c0 2.206-1.794 4-4 4-.74 0-1.424-.215-2.019-.567l-6.548 6.548c.352.595.567 1.279.567 2.019 0 2.206-1.794 4-4 4s-4-1.794-4-4c0-.093.021-.179.027-.271l-4.676-1.559c-.714 1.099-1.946 1.83-3.351 1.83-1.022 0-1.946-.397-2.653-1.029l-5.584 3.723c.143.411.237.846.237 1.306 0 2.206-1.794 4-4 4s-4-1.794-4-4 1.794-4 4-4c1.022 0 1.946.397 2.653 1.029l5.584-3.723c-.143-.411-.237-.846-.237-1.306 0-2.206 1.794-4 4-4s4 1.794 4 4c0 .093-.021.179-.027.27l4.676 1.559c.714-1.098 1.946-1.829 3.351-1.829.74 0 1.424.215 2.019.567l6.548-6.548c-.352-.595-.567-1.279-.567-2.019 0-2.206 1.794-4 4-4s4 1.794 4 4zm-38 16c0-1.103-.897-2-2-2s-2 .897-2 2 .897 2 2 2 2-.897 2-2zm12-8c0-1.103-.897-2-2-2s-2 .897-2 2 .897 2 2 2 2-.897 2-2zm12 4c0-1.103-.897-2-2-2s-2 .897-2 2 .897 2 2 2 2-.897 2-2zm12-12c0-1.103-.897-2-2-2s-2 .897-2 2 .897 2 2 2 2-.897 2-2z" fill="url(#SVGID_1_)"/></svg>